<svg xmlns="http://www.w3.org/2000/svg" viewBox="0 0 64 64" role="img" aria-label="D&amp;D Wailers">
  <defs>
    <linearGradient id="g" x1="0" y1="0" x2="0" y2="1">
      <stop offset="0" stop-color="#fcf1d2"/>
      <stop offset="0.35" stop-color="#f3d58a"/>
      <stop offset="0.7" stop-color="#d4a63f"/>
      <stop offset="1" stop-color="#7d5d1d"/>
    </linearGradient>
    <linearGradient id="d" x1="0" y1="0" x2="1" y2="1">
      <stop offset="0" stop-color="#e9c063"/>
      <stop offset="1" stop-color="#7d5d1d"/>
    </linearGradient>
  </defs>
  <polygon points="32,3 57,17.5 57,46.5 32,61 7,46.5 7,17.5" fill="#13110e" stroke="url(#g)" stroke-width="3" stroke-linejoin="round"/>
  <polygon points="32,14 47,40 17,40" fill="url(#d)" opacity="0.28"/>
  <g fill="none" stroke="url(#g)" stroke-width="2" stroke-linejoin="round" stroke-linecap="round">
    <polygon points="32,14 47,40 17,40"/>
    <line x1="32" y1="3" x2="32" y2="14"/>
    <line x1="57" y1="17.5" x2="47" y2="40"/>
    <line x1="7" y1="17.5" x2="17" y2="40"/>
    <line x1="57" y1="17.5" x2="32" y2="14"/>
    <line x1="7" y1="17.5" x2="32" y2="14"/>
    <line x1="47" y1="40" x2="57" y2="46.5"/>
    <line x1="17" y1="40" x2="7" y2="46.5"/>
    <line x1="47" y1="40" x2="32" y2="61"/>
    <line x1="17" y1="40" x2="32" y2="61"/>
  </g>
  <text x="32" y="35.5" text-anchor="middle" font-family="Georgia, 'Times New Roman', serif" font-weight="700" font-size="11" fill="#fcf1d2">20</text>
</svg>
